<svg fill="currentColor" viewBox="0 0 26.39 20" width="27" height="20" xmlns="http://www.w3.org/2000/svg"><path d="m22.35 1.67c-1.73-.79-3.56-1.36-5.44-1.67-.26.46-.49.93-.7 1.42-2-.3-4.04-.3-6.04 0-.21-.48-.44-.96-.7-1.42-1.88.32-3.71.89-5.45 1.68-3.44 5.1-4.37 10.07-3.91 14.97 2.02 1.49 4.28 2.62 6.68 3.35.54-.73 1.02-1.5 1.43-2.31-.78-.29-1.53-.65-2.25-1.08.19-.14.37-.28.55-.42 2.09.98 4.37 1.49 6.67 1.49s4.59-.51 6.68-1.49c.18.15.37.29.55.42-.72.42-1.47.78-2.26 1.08.41.81.89 1.58 1.43 2.3 2.4-.72 4.66-1.86 6.68-3.35.55-5.68-.94-10.61-3.92-14.98zm-13.54 11.96c-1.3 0-2.38-1.18-2.38-2.63s1.04-2.64 2.37-2.64 2.4 1.19 2.38 2.64-1.05 2.63-2.37 2.63zm8.77 0c-1.3 0-2.37-1.18-2.37-2.63s1.04-2.64 2.37-2.64 2.4 1.19 2.37 2.64c-.02 1.45-1.05 2.63-2.37 2.63z"/></svg>