<svg fill="currentColor" viewBox="0 0 18.3 18" width="22" height="20" xmlns="http://www.w3.org/2000/svg"><path d="m9.16 0c-5.07 0-9.16 4.12-9.16 9.23 0 4.08 2.62 7.53 6.26 8.75.46.09.62-.2.62-.44 0-.21-.01-.95-.01-1.71-2.55.55-3.08-1.1-3.08-1.1-.41-1.07-1.02-1.34-1.02-1.34-.83-.57.06-.57.06-.57.93.06 1.41.95 1.41.95.82 1.41 2.14 1.01 2.67.76.08-.6.32-1.01.58-1.24-2.03-.21-4.17-1.01-4.17-4.55 0-1.01.36-1.83.94-2.47-.09-.23-.41-1.18.09-2.44 0 0 .77-.24 2.52.95.75-.2 1.52-.3 2.29-.31.77 0 1.56.11 2.29.31 1.74-1.19 2.52-.95 2.52-.95.5 1.27.18 2.22.09 2.44.59.64.94 1.47.94 2.47 0 3.54-2.14 4.32-4.19 4.55.33.29.62.84.62 1.71 0 1.24-.02 2.23-.02 2.54 0 .24.17.53.62.44 3.64-1.22 6.26-4.68 6.26-8.75.03-5.11-4.08-9.23-9.13-9.23z" fill-rule="evenodd"/></svg>