<svg fill="currentColor" viewBox="0 0 20 20" width="20" height="20" xmlns="http://www.w3.org/2000/svg"><path d="m10 4.87c-2.84 0-5.13 2.29-5.13 5.13s2.29 5.13 5.13 5.13 5.13-2.29 5.13-5.13-2.29-5.13-5.13-5.13zm0 8.46c-1.83 0-3.33-1.49-3.33-3.33s1.5-3.33 3.33-3.33 3.33 1.5 3.33 3.33-1.5 3.33-3.33 3.33zm6.54-8.67c0 .66-.54 1.2-1.2 1.2s-1.2-.54-1.2-1.2.54-1.2 1.2-1.2 1.2.54 1.2 1.2zm3.39 1.22c-.08-1.6-.44-3.02-1.62-4.19-1.16-1.17-2.58-1.54-4.18-1.62-1.65-.09-6.6-.09-8.25 0-1.6.08-3.02.44-4.19 1.61-1.18 1.17-1.54 2.59-1.62 4.19-.09 1.65-.09 6.6 0 8.25.08 1.6.44 3.02 1.62 4.19 1.17 1.17 2.59 1.54 4.19 1.62 1.65.09 6.6.09 8.25 0 1.6-.08 3.02-.44 4.19-1.62 1.17-1.17 1.54-2.59 1.62-4.19.09-1.65.09-6.6 0-8.25zm-2.13 10.02c-.35.87-1.02 1.55-1.9 1.9-1.32.52-4.44.4-5.9.4s-4.58.12-5.9-.4c-.87-.35-1.55-1.02-1.9-1.9-.52-1.32-.4-4.44-.4-5.9s-.12-4.58.4-5.9c.35-.87 1.02-1.55 1.9-1.9 1.32-.52 4.44-.4 5.9-.4s4.58-.12 5.9.4c.87.35 1.55 1.02 1.9 1.9.52 1.32.4 4.44.4 5.9s.12 4.58-.4 5.9z"/></svg>