<svg fill="currentColor" viewBox="0 0 17.5 20" width="18" height="20" xmlns="http://www.w3.org/2000/svg"><path d="m17.5 8.2c-1.72 0-3.4-.53-4.8-1.53v6.98c0 1.29-.4 2.56-1.13 3.62s-1.78 1.87-2.99 2.33c-1.21.45-2.53.53-3.79.21-1.25-.32-2.38-1.01-3.23-1.99s-1.38-2.19-1.52-3.47c-.14-1.29.11-2.58.73-3.72s1.56-2.06 2.72-2.64c1.15-.58 2.46-.8 3.74-.62v3.51c-.59-.18-1.22-.18-1.8.02s-1.09.57-1.45 1.07-.55 1.1-.54 1.71c0 .61.2 1.21.56 1.71s.87.86 1.46 1.05 1.21.19 1.8 0c.58-.19 1.09-.56 1.45-1.06s.55-1.1.55-1.71v-13.67h3.44c0 .29.02.58.07.87.12.64.37 1.25.73 1.78.36.54.83 1 1.38 1.35.78.51 1.69.79 2.62.79z"/></svg>