<svg viewBox="0 0 130 60" fill="currentColor" xmlns="http://www.w3.org/2000/svg"><path d="M31.1436 39.8086V27.3624L56.1517 0V43.2447H46.5311V22.829L31.1436 39.8086Z"/><path d="M60.6407 43.2458H70.0032L70.0754 29.1237H74.9753L102.696 60V47.0299L85.5078 28.172C88.8079 26.7684 91.1043 23.702 91.5176 20.14L91.6226 19.2189C91.7035 18.5308 91.7418 17.8372 91.7418 17.1436C91.7418 16.8275 91.733 16.508 91.7166 16.1897C91.3481 9.36441 85.8763 3.92408 79.0518 3.59917L77.2432 3.51275H60.6396V43.2447L60.6407 43.2458ZM76.5204 21.234L75.744 21.2756H70.0393V10.7942H75.5242L76.7916 10.9463C78.048 11.0962 79.1874 11.6453 80.0721 12.4669C80.9567 13.2852 81.5865 14.3814 81.8326 15.6241C81.8326 18.6096 79.498 21.0732 76.5193 21.234H76.5204Z"/><path d="M12.5073 16.7104H0L16.4341 34.8364V55.9884L18.4745 53.7436V23.306L16.4341 21.0502L12.5073 16.7104Z"/><path d="M25.7046 3.51384L30.6483 9.0209L25.5023 14.6352V14.6636L24.5903 15.6755V47.0189L26.6308 44.7741V44.7358L26.6363 44.7303V25.5836L46.7193 3.51384H25.7046Z"/><path d="M22.1192 18.3558L20.9874 19.6182V19.6379L20.5161 20.1564V51.4987L22.5544 49.2572V17.9116L22.1192 18.3919V18.3558Z"/><path d="M119.376 28.8634L118.674 29.9092C115.078 35.2697 107.573 36.1984 102.776 31.8849L102.26 31.4211C99.8357 29.2408 98.6405 26.2389 98.6711 23.248C98.6405 20.2549 99.8357 17.253 102.26 15.0717L102.776 14.6078C107.574 10.2932 115.078 11.2231 118.674 16.5835L119.376 17.6294H129.743L129.122 16.4337L128.018 14.3081C126.962 12.2777 125.628 10.524 124.097 9.05591C120.295 5.40532 115.267 3.51275 110.212 3.51275C104.644 3.51275 99.0363 5.80462 94.9839 10.5711C91.8915 14.2085 90.4273 18.7496 90.599 23.2469C90.4273 27.7442 91.8937 32.2864 94.9839 35.9206C99.0352 40.687 104.643 42.9789 110.212 42.9789C115.267 42.9789 120.295 41.0863 124.097 37.4357C125.628 35.9709 126.962 34.2151 128.018 32.1836L129.122 30.058L129.743 28.8623H119.376V28.8634Z"/><path d="M114.352 23.2469L129.742 40.5054V23.2469H114.352Z"/></svg>