<svg fill="currentColor" viewBox="0 0 109.84 50" xmlns="http://www.w3.org/2000/svg"><path d="m100.94 24.5c-4.49 8.55-17.69 4.1-17.33-5.01-.34-9.27 13.09-13.55 17.48-4.79h8.75c-4.77-14.76-26.6-16.37-32.1-1.24-.84-13.63-16.97-10.54-26.23-10.79v33.88h7.9l.06-12.04h4.14l23.4 25.5v-10.51l-14.51-15.8c1.91-.82 3.42-2.31 4.3-4.14-.86 15.31 20.23 22.71 29.47 10.76l3.58 3.9v-14.72h-13.49l4.59 5.01zm-36.03-6.72c-.18.06-5.11.03-5.47.04v-8.94c.82.02 4.99-.07 5.7.13 5.56.5 5.3 8.56-.23 8.77z"/><path d="m26.61 33.65 12.99-14.15v17.04h8.12v-36.54l-21.11 23z"/><path d="m0 12.94 14.19 15.45v18.79l1.72-1.88v-26.74l-5.16-5.62z"/><path d="m22.01 2.67 4.17 4.7-5.11 5.58v26.73l1.72-1.88v-16.32s16.96-18.81 16.96-18.81z"/><path d="m17.63 43.43 1.72-1.88v-26.72l-1.72 1.87z"/></svg>